<?xml version="1.0" encoding="utf-8"?>
<!-- Generator: Adobe Illustrator 25.4.1, SVG Export Plug-In . SVG Version: 6.00 Build 0)  -->
<svg version="1.1" id="Capa_1" xmlns="http://www.w3.org/2000/svg" xmlns:xlink="http://www.w3.org/1999/xlink" x="0px" y="0px"
	 viewBox="0 0 800 800" style="enable-background:new 0 0 800 800;" xml:space="preserve">
<style type="text/css">
	.st0{fill:#727272;}
</style>
<path class="st0" d="M351,357.7c-3.3-10.3-6.3-20.3-9.7-30.7c-3.3-10.3-6.3-20-9-29.7c-2.7-9.3-5-18-7.3-26h-0.7
	c-3,14.3-6.7,28.7-11.3,43c-5,16-10,32.7-15.3,49.3c-4.7,17-9.7,32.7-14.7,46.7h84.7c-2-7-4.7-15.3-7.7-24
	C357,377.3,354,367.7,351,357.7L351,357.7z M658.3,10H141.7C63.3,10,0,73.3,0,151.7v496.7C0,726.7,63.3,790,141.7,790h516.7
	c78.3,0,141.7-63.3,141.7-141.7V151.7C800,73.3,736.7,10,658.3,10z M490,561h-69.7c-2.3,0.3-4.6-1.3-5.3-3.7L387.7,478h-124
	l-25.3,78.3c-0.7,3-3.3,5-6.3,4.7h-62.7c-3.7,0-4.7-2-3.7-6L273,246c1-3.3,2-7,3.3-11c1.3-7,2-14.3,2-21.7c-0.3-1.7,1-3.3,2.7-3.7
	h86.3c2.7,0,4,1,4.3,2.7l121.7,343.3C494.3,559.3,493.3,561,490,561L490,561z M603.3,556c0,3.7-1.3,5.3-4.3,5.3h-65.4
	c-3.3,0-5-2-5-5.3V299.3c0-3.3,1.4-4.7,4.4-4.7h66c3,0,4.3,1.7,4.3,4.7V556z M596.4,255c-7.7,8-19,12.3-30.4,11.7
	c-11,0.3-21.7-4-29.7-11.7c-7.7-8.3-11.7-19.3-11.3-30.7c-0.3-11.3,4-22,12-29.7c8.1-7.7,18.7-11.7,29.7-11.7c13,0,23,4,30.3,11.7
	c7.3,8,11.3,18.7,11,29.7C608.3,235.7,604.3,246.7,596.4,255L596.4,255z"/>
</svg>
