<?xml version="1.0" encoding="utf-8"?>
<!-- Generator: Adobe Illustrator 25.4.1, SVG Export Plug-In . SVG Version: 6.00 Build 0)  -->
<svg version="1.1" id="Capa_1" xmlns="http://www.w3.org/2000/svg" xmlns:xlink="http://www.w3.org/1999/xlink" x="0px" y="0px"
	 viewBox="0 0 800 800" style="enable-background:new 0 0 800 800;" xml:space="preserve">
<style type="text/css">
	.st0{fill:#727272;}
</style>
<path class="st0" d="M338.3,280.7c-12.5-4.9-25.9-7.2-39.3-6.7c-12.1-0.3-24.2,0-36.3,0.7v112l13,0.7h17.7c13,0,26-2,38.3-6
	c10.7-3,20-9.3,27.3-17.7c7-8.3,10.3-19.7,10.3-34.3C370.9,308,358.3,288.3,338.3,280.7L338.3,280.7z M658.3,10H141.7
	C63.4,10,0,73.4,0,151.7l0,0v496.7C0,726.7,63.3,790,141.7,790h516.7c78.3,0,141.7-63.3,141.7-141.7V151.7
	C800,73.3,736.7,10,658.3,10z M422,398.3C408.7,417,390,431,368.3,439c-22.7,8.3-47.7,11.3-75,11.3l-16.7-0.3l-14.3-0.3v107
	c0.4,2.2-1.1,4.2-3.3,4.6c-0.1,0-0.3,0-0.4,0H194c-2.7,0-4-1.3-4-4.3V214c0-2.3,1-3.7,3.3-3.7L212,210l25.3-0.7l29-0.7l30.3-0.3
	c27.3,0,50,3.3,68.7,10.3c16.7,5.7,32,15,44.7,27.3c10.7,10.7,19,23.7,24.3,38c5,14,7.7,28.3,7.7,43.3
	C442,356,435.3,379.7,422,398.3L422,398.3z M649.3,293.3v65c0,2.7-1.7,3.7-5.3,3.7c-22-0.8-43.9,3.4-64,12.3c-6.3,3-12.3,7-17,12.3
	v170c0,3.3-1.3,4.7-4.3,4.7H493c-2.5,0.4-4.9-1.4-5.3-3.9c0,0,0-0.1,0-0.1v-186l-0.3-25l-0.7-26c0-7.7-0.7-15-1.3-22.7
	c-0.2-1.6,0.8-3.2,2.3-3.7H547c3.3,0,6,2.3,6.7,5.3c3,9.9,4.5,20.3,4.3,30.7c10-11.7,22.3-21.3,36-28.7c15.5-8.6,32.9-13.1,50.7-13
	c2.3-0.3,4.3,1.3,4.7,3.7V293.3L649.3,293.3z"/>
</svg>
