<?xml version="1.0" encoding="utf-8"?>
<!-- Generator: Adobe Illustrator 25.4.1, SVG Export Plug-In . SVG Version: 6.00 Build 0)  -->
<svg version="1.1" id="Capa_1" xmlns="http://www.w3.org/2000/svg" xmlns:xlink="http://www.w3.org/1999/xlink" x="0px" y="0px"
	 viewBox="0 0 800 800" style="enable-background:new 0 0 800 800;" xml:space="preserve">
<style type="text/css">
	.st0{fill:#727272;}
</style>
<g>
	<g>
		<path class="st0" d="M271.3,228.2c-20.2,0-34,2-41.1,4v130.1c8.5,1.9,18.9,2.6,33.3,2.6c53,0,85.7-26.8,85.7-71.9
			C349.1,252.4,321,228.2,271.3,228.2z"/>
		<path class="st0" d="M751,0.1H49C21.9,0.1,0,22,0,49v702c0,27,21.9,49,49,49h702c27,0,49-21.9,49-49V49C800,22,778.1,0.1,751,0.1z
			 M407.3,394.9c-33.9,32.1-84.4,46.4-143.1,46.4c-13.1,0-24.9-0.6-34-2V597h-98.8V162.2c30.7-5.2,73.9-9.1,134.7-9.1
			c61.4,0,105.3,11.7,134.6,35.3c28.3,22.3,47.2,58.9,47.2,102S433.5,370,407.3,394.9z M556.2,603.5c-41.9,0-79.2-9.1-103.4-22.2
			l17.6-71.3c18.3,11,56.3,24.1,85.8,24.1c30,0,42.5-10.4,42.5-26.8c0-16.3-9.8-24.1-47-36.6c-66-22.2-91.6-58.2-90.9-96.1
			c0-59.4,51-104.7,130.2-104.7c37.3,0,70.6,8.6,90.2,18.3L663.4,357c-14.4-7.9-41.8-18.3-69.3-18.3c-24.1,0-37.8,9.8-37.8,26.1
			c0,15,12.3,22.9,51.6,36.6c60.8,20.9,86.4,51.7,87,98.6C694.8,559.7,647.6,603.5,556.2,603.5z"/>
	</g>
</g>
</svg>
