<?xml version="1.0" encoding="utf-8"?>
<!-- Generator: Adobe Illustrator 25.4.1, SVG Export Plug-In . SVG Version: 6.00 Build 0)  -->
<svg version="1.1" id="Capa_1" xmlns="http://www.w3.org/2000/svg" xmlns:xlink="http://www.w3.org/1999/xlink" x="0px" y="0px"
	 viewBox="0 0 800 800" style="enable-background:new 0 0 800 800;" xml:space="preserve">
<style type="text/css">
	.st0{fill:#636363;}
</style>
<g>
	<g>
		<g>
			<path class="st0" d="M471.4,381.1c-37.7,0-57.5,33.9-57.5,76.1c0,45.4,22.5,73.8,56.9,73.8c24.1,0,43.2-16.4,48.2-39.9
				c1.5-6,2.2-12,2.2-19.2v-35c0-4.4-0.6-10.4-1.1-14.9C515.2,399.7,497.1,381.1,471.4,381.1z"/>
			<path class="st0" d="M748.9,0H51.1C22.9,0,0,22.9,0,51v697.8c0,28.2,22.9,51.1,51.1,51.1h697.8c28.3,0,51.1-22.9,51.1-51.1V51
				C799.9,22.8,777.2,0,748.9,0z M277.1,591.1h-83.7V222.4h83.7V591.1z M532.8,591.1l-3.8-39.3h-1.2c-17,30.1-49.2,45.4-83.7,45.4
				c-63.5,0-114.3-54.2-114.3-137.4c-0.6-90.2,55.8-142.2,119.9-142.2c32.8,0,58.5,11.5,70.5,30.1h1.1v-145h83.1v308.5
				c0,30.2,1.1,61.9,2.2,79.9L532.8,591.1L532.8,591.1z"/>
		</g>
	</g>
</g>
</svg>
