<svg id="Capa_1" data-name="Capa 1" xmlns="http://www.w3.org/2000/svg" viewBox="0 0 105.33 108.78"><defs><style>.cls-1{fill:#333;}</style></defs><path class="cls-1" d="M121.4,81.11c0-20.55.15-40.2.6-50.69h-.45c-4.2,14.09-25.5,65.84-38.85,99h-8c-10-25.65-32.1-83.25-36.9-99.14h-.3c.75,12,1.05,36.44,1.05,54.44v44.7H30.5v-105H42.65c14.4,36,32.55,83.09,36.45,94.94h.3c2.4-7.65,23.4-60,38.1-94.94h12v105h-8.1Z" transform="translate(-27.29 -24.42)"/><rect class="cls-1" x="10.47" y="55.58" width="22.22" height="6.44"/><rect class="cls-1" x="72.31" y="55.58" width="27.05" height="6.44"/><rect class="cls-1" y="102.34" width="13.93" height="6.44"/><rect class="cls-1" x="91.4" y="102.34" width="13.93" height="6.44"/></svg>